<?xml version="1.0" standalone="no"?> 
<!DOCTYPE svg PUBLIC "-//W3C//DTD SVG 1.1//EN" "http://www.w3.org/Graphics/SVG/1.1/DTD/svg11.dtd" >
<svg xmlns="http://www.w3.org/2000/svg">
<defs>
  <font id="webfont-icons" horiz-adv-x="512">
    <font-face font-family="webfont-icons"
      units-per-em="513" ascent="513"
      descent="0" />
    <missing-glyph horiz-adv-x="0" />
    <glyph glyph-name="add-circle"
      unicode="&#xEA01;"
      horiz-adv-x="513" d=" M256.5 512.9744610389502C115.0659 512.9744610389502 0 398.4066822128907 0 257.58485071875C0 116.7630192246094 115.0659 2.1952402207031 256.5 2.1952402207031C397.9341 2.1952402207031 513 116.7630192246094 513 257.58485071875C513 398.4066822128907 397.9341 512.9744610389502 256.5 512.9744610389502L256.5 512.9744610389502L256.5 512.9744610389502zM384.75 232.0458891679687L282.1500000000001 232.0458891679687L282.1500000000001 129.89004496875L230.85 129.89004496875L230.85 232.0458891679687L128.25 232.0458891679687L128.25 283.1238112675782L230.85 283.1238112675782L230.85 385.2796554667969L282.1500000000001 385.2796554667969L282.1500000000001 283.1238112675782L384.75 283.1238112675782L384.75 232.0458891679687L384.75 232.0458891679687L384.75 232.0458891679687z" />
    <glyph glyph-name="add-user"
      unicode="&#xEA02;"
      horiz-adv-x="512" d=" M170.709333 185.19712C217.749333 185.19712 256.042667 221.95872 256.042667 267.11712C256.042667 312.27552 217.749333 349.03712 170.709333 349.03712C123.669333 349.03712 85.376 312.27552 85.376 267.11712C85.376 221.95872 123.669333 185.19712 170.709333 185.19712L170.709333 185.19712z M170.709333 164.71712C70.208 164.71712 0.0426666667 114.19296 0.0426666667 41.83712L0.0426666667 21.35712L341.376 21.35712L341.376 41.83712C341.376 114.19296 271.210667 164.71712 170.709333 164.71712L170.709333 164.71712z M469.376 369.51712L405.376 369.51712L405.376 430.9571200000001L362.709333 430.9571200000001L362.709333 369.51712L298.709333 369.51712L298.709333 328.55712L362.709333 328.55712L362.709333 267.11712L405.376 267.11712L405.376 328.55712L469.376 328.55712L469.376 369.51712z" />
    <glyph glyph-name="add"
      unicode="&#xEA03;"
      horiz-adv-x="513" d=" M513 296.9729997363281L284.9999995546875 296.9729997363281L284.9999995546875 512.9730000000211L228.0000004453125 512.9730000000211L228.0000004453125 296.9729997363281L0 296.9729997363281L0 242.972999578125L228.0000004453125 242.972999578125L228.0000004453125 26.9729999472656L284.9999995546875 26.9729999472656L284.9999995546875 242.972999578125L513 242.972999578125L513 296.9729997363281z" />
    <glyph glyph-name="alert-circle"
      unicode="&#xEA04;"
      horiz-adv-x="513" d=" M256.5 470.2499996660156C138.638250300586 470.2499996660156 42.7500003339844 374.3617496994141 42.7500003339844 256.5C42.7500003339844 138.6168743320312 138.638250300586 42.7499993320312 256.5 42.7499993320312C374.3617500000001 42.7499993320312 470.2500006679688 138.6168743320312 470.2500006679688 256.5C470.2500006679688 374.3617496994141 374.3617500000001 470.2499996660156 256.5 470.2499996660156L256.5 470.2499996660156zM235.1250003339844 384.7499996994141L277.8750006679687 384.7499996994141L277.8750006679687 235.1249993320313L235.1250003339844 235.1249993320313L235.1250003339844 384.7499996994141L235.1250003339844 384.7499996994141zM256.5 144.28125C241.75125 144.28125 229.7812506679687 156.2298746660156 229.7812506679687 170.9999993320312C229.7812506679687 185.7487493320313 241.75125 197.7187496660156 256.5 197.7187496660156C271.2487500000001 197.7187496660156 283.2187503339844 185.7487493320313 283.2187503339844 170.9999993320312C283.2187503339844 156.2298746660156 271.2487500000001 144.28125 256.5 144.28125L256.5 144.28125z" />
    <glyph glyph-name="android"
      unicode="&#xEA05;"
      horiz-adv-x="513" d=" M324.9333984375 474.2244140625L323.0296875 471.6193359375C322.5287109375 470.91796875 321.02578125 471.118359375 319.6230468750001 472.1203125C318.3205078125001 473.122265625 317.6191406250001 474.4248046875 318.019921875 475.126171875L319.2222656250001 476.8294921875C302.6900390625001 483.4423828125 282.6509765625001 487.6505859375 258.1031250000001 487.951171875C233.4550781250001 488.2517578125 213.215625 484.4443359375 196.583203125 478.13203125L197.9859375 476.128125C198.4869140625 475.4267578125 197.785546875 474.12421875 196.3828125 473.122265625C194.980078125 472.1203125 193.4771484375 471.919921875 193.0763671875 472.6212890625L190.972265625 475.6271484375C122.438671875 445.869140625 119.633203125 371.8248046875001 119.633203125 371.8248046875001L394.9699218750001 369.720703125C394.969921875 369.720703125 392.565234375 443.1638671875 324.9333984375 474.2244140625zM197.184375 414.7083984375C188.0666015625 414.80859375 180.6521484375 422.223046875 180.75234375 431.441015625C180.8525390625 440.5587890625 188.2669921875 447.9732421875 197.4849609375 447.873046875C206.602734375 447.7728515625 214.0171875 440.3583984375 213.9169921875 431.1404296875C213.816796875 422.02265625 206.40234375 414.608203125 197.184375 414.7083984375zM318.019921875 413.806640625C308.9021484375 413.9068359375 301.4876953125 421.3212890625 301.587890625 430.5392578125C301.6880859375001 439.65703125 309.2027343750001 447.071484375 318.3205078125 446.9712890625C327.43828125 446.87109375 334.852734375 439.456640625 334.7525390625 430.238671875C334.65234375 421.020703125 327.2378906250001 413.7064453125 318.019921875 413.806640625z M172.6365234375 512.59921875C172.135546875 513.3005859375 170.6326171875 513.1001953125 169.330078125 512.0982421875C167.92734375 511.0962890625 167.2259765625 509.79375 167.726953125 509.0923828125L191.0724609375 475.6271484375C192.976171875 476.4287109375 194.7796875 477.33046875 196.78359375 478.13203125L172.6365234375 512.59921875z M196.4830078125 473.122265625C197.8857421875 474.12421875 198.587109375 475.4267578125 198.0861328125 476.128125L196.6833984375 478.13203125C194.6794921875 477.33046875 192.8759765625 476.52890625 190.972265625 475.6271484375L193.0763671875 472.6212890625C193.57734375 471.919921875 195.0802734375 472.1203125 196.4830078125 473.122265625z M349.08046875 507.6896484375C349.5814453125 508.391015625 348.880078125 509.6935546875 347.47734375 510.6955078125C346.1748046875 511.6974609375 344.671875 511.8978515625 344.1708984375 511.196484375L319.3224609375 476.729296875C321.3263671875 475.927734375 323.0296874999999 475.0259765625 324.9333984375 474.12421875L349.08046875 507.6896484375z M319.7232421875001 472.1203125C321.1259765625 471.118359375 322.62890625 470.91796875 323.1298828125 471.6193359375L325.03359375 474.2244140625C323.1298828125 475.126171875 321.4265625 476.0279296875 319.42265625 476.8294921875L318.2203125 475.126171875C317.619140625 474.4248046875 318.3205078125 473.122265625 319.7232421875001 472.1203125z M135.1634765625 355.3927734375L118.3306640625 355.49296875L117.42890625 241.1701171875L117.629296875 241.1701171875L116.7275390625 121.3365234375C116.62734375 112.1185546875 124.041796875 104.7041015625 133.1595703125 104.60390625L168.6287109375 104.3033203125L168.0275390625 30.5595703125C167.92734375 14.227734375 181.0529296875 0.9017578125 197.2845703125 0.8015625C213.61640625 0.7013671875 226.9423828125 13.826953125 227.042578125 30.05859375L227.64375 103.80234375L282.55078125 103.4015625000001L281.949609375 29.6578125C281.8494140625 13.3259765625 294.975 0 311.206640625 -0.1001953125C327.5384765625 -0.2003906250001 340.864453125 12.9251953125 340.9646484375 29.1568359375L341.5658203125 102.9005859375L377.0349609375 102.5999999999999C386.2529296875 102.4998046874999 393.6673828125 109.9142578125 393.767578125 119.0320312499999L394.6693359374999 238.8656249999999L394.969921875 238.8656249999999L395.8716796874999 353.1884765624999L379.0388671874999 353.2886718749999L135.1634765625 355.3927734375z M440.3583984375 362.5066406250001C424.0265625 362.6068359375 410.7005859375 349.4812500000001 410.600390625 333.2496093750001L409.5984375 200.5910156250001C409.4982421875 184.2591796875 422.5236328125 170.933203125 438.85546875 170.8330078125001C455.1873046875 170.7328125 468.51328125 183.8583984375001 468.6134765625 200.0900390625001L469.6154296875 332.7486328125001C469.8158203125 349.08046875 456.690234375 362.4064453125 440.3583984375 362.5066406250001z M74.0443359375 365.312109375C57.7125 365.4123046875 44.3865234375 352.28671875 44.286328125 336.055078125L43.284375 203.396484375C43.1841796875 187.0646484375 56.309765625 173.738671875 72.54140625 173.6384765625C88.8732421875 173.53828125 102.19921875 186.6638671875 102.2994140625 202.8955078125L103.3013671875 335.5541015625C103.5017578125 351.8859375 90.376171875 365.2119140625 74.0443359375 365.312109375z" />
    <glyph glyph-name="apple"
      unicode="&#xEA06;"
      horiz-adv-x="513" d=" M278.1421875000001 468.312890625C311.8078125 512.799609375 358.69921875 513 358.69921875 513S365.712890625 471.2185546875 332.1474609375 431.040234375C296.377734375 388.0564453125001 255.7986328125 395.0701171875001 255.7986328125 395.0701171875001S248.1837890625 428.8359375 278.1421875000001 468.312890625z M260.1070312500001 365.8130859375C277.4408203125 365.8130859375 309.603515625 389.6595703125 351.48515625 389.6595703125C423.62578125 389.6595703125 451.9810546875 338.3595703125 451.9810546875 338.3595703125S396.4728515625001 310.004296875 396.4728515625001 241.1701171875C396.4728515625001 163.51875 465.6076171875001 136.7666015625 465.6076171875001 136.7666015625S417.3134765625001 0.8015625 351.9861328125001 0.8015625C322.0277343750001 0.8015625 298.6822265625001 21.041015625 267.1207031250001 21.041015625C234.9580078125001 21.041015625 202.9957031250001 0.1001953125 182.2552734375001 0.1001953125C122.6390625000001 0.1001953125 47.3923828125001 129.0515625 47.3923828125001 232.7537109375C47.3923828125001 334.7525390625001 111.1166015625001 388.2568359375 170.8330078125001 388.2568359375C209.7087890625 388.2568359375 239.867578125 365.8130859375 260.1070312500001 365.8130859375z" />
    <glyph glyph-name="arrow-menu"
      unicode="&#xEA07;"
      horiz-adv-x="513" d=" M513 166.32421875C513 161.8693087148437 511.2865729863281 157.9284266835937 507.8597189589843 154.5015736582032L482.1583167597656 128.8001704570313C478.7314627324219 125.3733174316406 474.7905807011719 123.6598904179688 470.3356716679688 123.6598904179688C465.8807616328126 123.6598904179688 461.9398796015626 125.3733174316406 458.5130255742188 128.8001704570313L256.5 330.8131970332031L54.4869739248047 128.8001704570313C51.0601201980469 125.3733174316406 47.1192384673828 123.6598904179688 42.6643286326172 123.6598904179688C38.2094187978516 123.6598904179688 34.2685370671875 125.3733174316406 30.8416833404297 128.8001704570313L5.1402805600781 154.5015736582032C1.7134268533594 157.9284266835937 0 161.8693087148437 0 166.32421875C0 170.7791287851563 1.7134268533594 174.7200108164063 5.1402805600781 178.1468638417969L244.6773549082031 417.683938209961C248.1042079335938 421.1107919367188 252.0450899648438 422.82421875 256.5 422.82421875C260.9549100351563 422.82421875 264.8957920664063 421.1107919367188 268.3226450917969 417.683938209961L507.8597189589843 178.1468638417969C511.2865729863281 174.7200108164063 513 170.7791287851563 513 166.32421875L513 166.32421875z" />
    <glyph glyph-name="arrow"
      unicode="&#xEA08;"
      horiz-adv-x="513" d=" M357.112125 357.1121253306445L326.8878753339844 326.8878753339844L375.90075 277.8750003673828L42.7500003339844 277.8750003673828L42.7500003339844 235.1250003339844L375.90075 235.1250003339844L326.8878753339844 186.1121256679687L357.112125 155.9092506679687L457.72425 256.5z" />
    <glyph glyph-name="bin"
      unicode="&#xEA09;"
      horiz-adv-x="513" d=" M328.640625 447.6098211644532L328.640625 496.96875L180.3515625 496.96875L180.3515625 447.6098211644532L32.0625 447.6098211644532L32.0625 398.2262003964844L476.9296875 398.2262003964844L476.9296875 447.6098211644532L328.640625 447.6098211644532z M81.4921874666016 373.5343902128907L81.4921874666016 77.2326660058594C81.4921874666016 50.0222913398437 103.6614023103516 27.8490456386719 130.9218750333984 27.8490456386719L378.0703121660156 27.8490456386719C405.3307854902344 27.8490456386719 427.5000003339844 50.0222913398437 427.5000003339844 77.2326660058594L427.5000003339844 373.5343902128907L81.4921874666016 373.5343902128907L81.4921874666016 373.5343902128907zM229.7812496660157 126.5915952421875L180.3515625 126.5915952421875L180.3515625 274.7424573457031L229.7812496660157 274.7424573457031L229.7812496660157 126.5915952421875L229.7812496660157 126.5915952421875zM328.640625 126.5915952421875L279.2109378339844 126.5915952421875L279.2109378339844 274.7424573457031L328.640625 274.7424573457031L328.640625 126.5915952421875L328.640625 126.5915952421875z" />
    <glyph glyph-name="building"
      unicode="&#xEA0A;"
      horiz-adv-x="513" d=" M487.35 488.5958571714844L25.65 488.5958571714844C11.4912 488.5958571714844 0 477.6274286191406 0 464.1672857238281L0 24.4529996660156C0 10.9440003339844 11.4912 0.0244286191406 25.65 0.0244286191406L487.35 0.0244286191406C501.5088 0.0244286191406 513 10.9440003339844 513 24.4529996660156L513 464.1672857238281C513 477.6518571380859 501.5088 488.5958571714844 487.35 488.5958571714844L487.35 488.5958571714844zM230.85 48.8815717148437L230.85 97.7387138085937L282.1500000000001 97.7387138085937L282.1500000000001 48.8815717148437L230.85 48.8815717148437L230.85 48.8815717148437zM461.7 48.8815717148437L333.45 48.8815717148437L333.45 122.1672858574219C333.45 135.627428953125 321.9588 146.5958569042969 307.8 146.5958569042969L205.2 146.5958569042969C191.0412 146.5958569042969 179.55 135.627428953125 179.55 122.1672858574219L179.55 48.8815717148437L51.3 48.8815717148437L51.3 439.7387142761719L461.7 439.7387142761719L461.7 48.8815717148437L461.7 48.8815717148437z M179.55 366.4530003339844H230.85V317.5958574386719H179.55V366.4530003339844z M282.1500000000001 366.4530003339844H333.45V317.5958574386719H282.1500000000001V366.4530003339844z M384.75 366.4530003339844H436.05V317.5958574386719H384.75V366.4530003339844z M179.55 268.7387141425782H230.85V219.8815712472656H179.55V268.7387141425781z M76.95 366.4530003339844H128.25V317.5958574386719H76.95V366.4530003339844z M76.95 268.7387141425782H128.25V219.8815712472656H76.95V268.7387141425781z M282.1500000000001 268.7387141425782H333.45V219.8815712472656H282.1500000000001V268.7387141425781z M384.75 268.7387141425782H436.05V219.8815712472656H384.75V268.7387141425781z" />
    <glyph glyph-name="calculator"
      unicode="&#xEA0B;"
      horiz-adv-x="513" d=" M307.4598168750001 429.2499178792969H357.2814862388672V379.4282485154297H307.4598168750001V429.2499178792969z M382.1923212714844 503.982421875L133.0839740513672 503.982421875C105.6322341878906 503.982421875 83.2623046875 481.6124923746094 83.2623046875 454.1607525111328L83.2623046875 55.5873975C83.2623046875 28.1107467773438 105.6322341878906 5.7657282363281 133.0839740513672 5.7657282363281L382.1923212714844 5.7657282363281C409.6938825527344 5.7657282363281 432.0139905351563 28.1107467773438 432.0139905351563 55.5873975L432.0139905351563 454.1607525111328C432.0139905351563 481.6124923746094 409.6938825527344 503.982421875 382.1923212714844 503.982421875L382.1923212714844 503.982421875zM157.9948086832031 80.4982326328125C144.2191171833984 80.4982326328125 133.0839740513672 91.6582861230469 133.0839740513672 105.4090667636719C133.0839740513672 119.1349368457031 144.2191171833984 130.3199018964844 157.9948086832031 130.3199018964844C171.7455894240235 130.3199018964844 182.9056434152344 119.1349368457031 182.9056434152344 105.4090667636719C182.9056434152344 91.6582861230469 171.7455894240235 80.4982326328125 157.9948086832031 80.4982326328125L157.9948086832031 80.4982326328125zM157.9948086832031 155.2307360273437C144.2191171833984 155.2307360273437 133.0839740513672 166.3907905195313 133.0839740513672 180.1415711601562C133.0839740513672 193.8923518007812 144.2191171833984 205.0524052910157 157.9948086832031 205.0524052910157C171.7455894240235 205.0524052910157 182.9056434152344 193.8923518007812 182.9056434152344 180.1415711601562C182.9056434152344 166.3907905195313 171.7455894240235 155.2307360273437 157.9948086832031 155.2307360273437L157.9948086832031 155.2307360273437zM157.9948086832031 229.9632404238282C144.2191171833984 229.9632404238282 133.0839740513672 241.073472796875 133.0839740513672 254.8740755566407C133.0839740513672 268.5999446367188 144.2191171833984 279.7849096875 157.9948086832031 279.7849096875C171.7455894240235 279.7849096875 182.9056434152344 268.5999446367188 182.9056434152344 254.8740755566407C182.9056434152344 241.073472796875 171.7455894240235 229.9632404238282 157.9948086832031 229.9632404238282L157.9948086832031 229.9632404238282zM257.6381476113282 80.4982326328125C243.8624554101563 80.4982326328125 232.7273124785156 91.6582861230469 232.7273124785156 105.4090667636719C232.7273124785156 119.1349368457031 243.8624554101563 130.3199018964844 257.6381476113282 130.3199018964844C271.3889282519532 130.3199018964844 282.5489817421875 119.1349368457031 282.5489817421875 105.4090667636719C282.5489817421875 91.6582861230469 271.3889282519532 80.4982326328125 257.6381476113282 80.4982326328125L257.6381476113282 80.4982326328125zM257.6381476113282 155.2307360273437C243.8624554101563 155.2307360273437 232.7273124785156 166.3907905195313 232.7273124785156 180.1415711601562C232.7273124785156 193.8923518007812 243.8624554101563 205.0524052910157 257.6381476113282 205.0524052910157C271.3889282519532 205.0524052910157 282.5489817421875 193.8923518007812 282.5489817421875 180.1415711601562C282.5489817421875 166.3907905195313 271.3889282519532 155.2307360273437 257.6381476113282 155.2307360273437L257.6381476113282 155.2307360273437zM257.6381476113282 229.9632404238282C243.8624554101563 229.9632404238282 232.7273124785156 241.073472796875 232.7273124785156 254.8740755566407C232.7273124785156 268.5999446367188 243.8624554101563 279.7849096875 257.6381476113282 279.7849096875C271.3889282519532 279.7849096875 282.5489817421875 268.5999446367188 282.5489817421875 254.8740755566407C282.5489817421875 241.073472796875 271.3889282519532 229.9632404238282 257.6381476113282 229.9632404238282L257.6381476113282 229.9632404238282zM357.2814861386719 80.4982326328125C343.5057949394532 80.4982326328125 332.3706510058594 91.6582861230469 332.3706510058594 105.4090667636719C332.3706510058594 119.1349368457031 343.5057949394532 130.3199018964844 357.2814861386719 130.3199018964844C371.0322667792969 130.3199018964844 382.1923212714844 119.1349368457031 382.1923212714844 105.4090667636719C382.1923212714844 91.6582861230469 371.0322667792969 80.4982326328125 357.2814861386719 80.4982326328125L357.2814861386719 80.4982326328125zM357.2814861386719 155.2307360273437C343.5057949394532 155.2307360273437 332.3706510058594 166.3907905195313 332.3706510058594 180.1415711601562C332.3706510058594 193.8923518007812 343.5057949394532 205.0524052910157 357.2814861386719 205.0524052910157C371.0322667792969 205.0524052910157 382.1923212714844 193.8923518007812 382.1923212714844 180.1415711601562C382.1923212714844 166.3907905195313 371.0322667792969 155.2307360273437 357.2814861386719 155.2307360273437L357.2814861386719 155.2307360273437zM357.2814861386719 229.9632404238282C343.5057949394532 229.9632404238282 332.3706510058594 241.073472796875 332.3706510058594 254.8740755566407C332.3706510058594 268.5999446367188 343.5057949394532 279.7849096875 357.2814861386719 279.7849096875C371.0322667792969 279.7849096875 382.1923212714844 268.5999446367188 382.1923212714844 254.8740755566407C382.1923212714844 241.073472796875 371.0322667792969 229.9632404238282 357.2814861386719 229.9632404238282L357.2814861386719 229.9632404238282zM382.1674097109376 354.5174140839844L133.0839740513672 354.5174140839844L133.0839740513672 454.1607525111328L382.1923212714844 454.1607525111328L382.1674097109376 354.5174140839844L382.1674097109376 354.5174140839844z" />
    <glyph glyph-name="calendar"
      unicode="&#xEA0C;"
      horiz-adv-x="513" d=" M461.0607480630841 435.4906538060748L435.490655004673 435.4906538060748L435.490655004673 512.2009341799065L384.3504676892524 512.2009341799065L384.3504676892524 384.3504664906542L358.7803746308412 384.3504664906542L358.7803746308412 435.4906538060748L179.7897196261682 435.4906538060748L179.7897196261682 512.2009341799065L128.6495335093458 512.2009341799065L128.6495335093458 384.3504664906542L103.0794396119159 384.3504664906542L103.0794396119159 435.4906538060748L51.9392527759346 435.4906538060748C23.7354396518692 435.4906538060748 0.7990658200935 412.5287099207945 0.7990658200935 384.3504664906542L0.7990658200935 51.9392519369159C0.7990658200935 23.735438453271 23.7354396518692 0.7990646214953 51.9392527759346 0.7990646214953L461.0607480630841 0.7990646214953C489.264561546729 0.7990646214953 512.2009353785047 23.735438453271 512.2009353785047 51.9392519369159L512.2009353785047 384.3504664906542C512.2009353785047 412.5287099207945 489.264561546729 435.4906538060748 461.0607480630841 435.4906538060748L461.0607480630841 435.4906538060748zM460.9840377827103 51.9392519369159L51.9392527759346 51.9392519369159L51.9392527759346 333.2102803738318L461.0607480630841 333.2102803738318L460.9840377827103 51.9392519369159L460.9840377827103 51.9392519369159z" />
    <glyph glyph-name="chat-bubble"
      unicode="&#xEA0D;"
      horiz-adv-x="513" d=" M85.4572496326172 470.2499996660156C61.8592496326172 470.2499996660156 42.7072496994141 451.119374699414 42.7072496994141 427.4999996326172L42.7072496994141 170.9999993320312C42.7072496994141 147.4019993320313 61.8592496326172 128.25 85.4572496326172 128.25L149.5822493320313 128.25L149.5822493320313 42.7499993320312L235.08225 128.25L427.45725 128.25C451.0766246660156 128.25 470.2072493320312 147.4019993320313 470.2072493320312 170.9999993320312L470.2072493320312 427.4999996326172C470.2072493320312 451.119374699414 451.0766246660156 470.2499996660156 427.45725 470.2499996660156L85.4572496326172 470.2499996660156L85.4572496326172 470.2499996660156z" />
    <glyph glyph-name="chat"
      unicode="&#xEA0E;"
      horiz-adv-x="513" d=" M268.723828125 476.328515625C134.061328125 476.328515625 24.44765625 377.736328125 24.44765625 256.5C24.44765625 214.1173828125 37.6734375 173.6384765625 62.8224609375 138.3697265625C0 36.671484375 0 36.671484375 0 36.671484375S160.8134765625 36.671484375 268.723828125 36.671484375C403.3863281250001 36.671484375 513 135.263671875 513 256.5C513 377.736328125 403.3863281250001 476.328515625 268.723828125 476.328515625zM171.0333984375 232.0523437500001C157.50703125 232.0523437500001 146.5857421875 242.9736328125 146.5857421875 256.5000000000001C146.5857421875 270.0263671875 157.50703125 280.94765625 171.0333984375 280.94765625C184.559765625 280.94765625 195.4810546875 270.0263671875 195.4810546875 256.5000000000001C195.380859375 242.9736328125 184.4595703125 232.0523437500001 171.0333984375 232.0523437500001zM268.723828125 232.0523437500001C255.1974609375 232.0523437500001 244.276171875 242.9736328125 244.276171875 256.5000000000001C244.276171875 270.0263671875 255.1974609375 280.94765625 268.723828125 280.94765625C282.2501953125 280.94765625 293.171484375 270.0263671875 293.171484375 256.5000000000001C293.1714843750001 242.9736328125 282.2501953125 232.0523437500001 268.723828125 232.0523437500001zM366.4142578125 232.0523437500001C352.887890625 232.0523437500001 341.9666015625 242.9736328125 341.9666015625 256.5000000000001C341.9666015625 270.0263671875 352.887890625 280.94765625 366.4142578125 280.94765625C379.940625 280.94765625 390.8619140625 270.0263671875 390.8619140625 256.5000000000001C390.8619140625001 242.9736328125 379.940625 232.0523437500001 366.4142578125 232.0523437500001z" />
    <glyph glyph-name="check-circle-dark"
      unicode="&#xEA0F;"
      horiz-adv-x="513" d=" M256.5 502.780078125C114.823828125 502.780078125 0 392.4650390625 0 256.5S114.823828125 10.219921875 256.5 10.219921875S513 120.434765625 513 256.5S398.176171875 502.780078125 256.5 502.780078125zM237.2625 114.9240234375L109.0125 207.3041015625L147.4875 256.6001953125L224.4375 201.1921874999999L359.1 373.528125L410.4 336.5560546874999L237.2625 114.9240234375z" />
    <glyph glyph-name="check-circle"
      unicode="&#xEA10;"
      horiz-adv-x="513" d=" M257.3977500000001 42.7499993320312C139.5360003005859 42.7499993320312 43.6477503339844 138.63825 43.6477503339844 256.5C43.6477503339844 374.3617496994141 139.5360003005859 470.2499996660156 257.3977500000001 470.2499996660156C375.2595 470.2499996660156 471.1477506679688 374.3617496994141 471.1477506679688 256.5C471.1477506679688 138.63825 375.2595 42.7499993320312 257.3977500000001 42.7499993320312L257.3977500000001 42.7499993320312zM257.3977500000001 427.4999996326172C163.1126253339844 427.4999996326172 86.3977503673828 350.7851246660157 86.3977503673828 256.5C86.3977503673828 162.2148743320312 163.1126253339844 85.4999996660156 257.3977500000001 85.4999996660156C351.6828756679688 85.4999996660156 428.3977503339844 162.2148743320312 428.3977503339844 256.5C428.3977503339844 350.7851246660157 351.6828756679688 427.4999996326172 257.3977500000001 427.4999996326172L257.3977500000001 427.4999996326172z M239.4213753339844 151.1639996660156L153.00225 237.583125L190.771875 275.3741246660157L232.6027506679688 233.5646246660156L321.138 357.5182496660157L364.6361256679688 326.460375L239.4213753339844 151.1639996660156z" />
    <glyph glyph-name="check-file"
      unicode="&#xEA11;"
      horiz-adv-x="513" d=" M384.75 211.8262496660157L384.75 414.9742499666016L286.7242496660156 513L42.7500000333984 513C19.173375 513 0 493.8052500333985 0 470.2499999666015L0 85.4999996660156C0 61.9233753339844 19.173375 42.7500003339844 42.7500000333984 42.7500003339844L285.3348753339844 42.7500003339844C280.5896253339844 56.1307496660157 277.8749996660156 70.473375 277.8749996660156 85.4999996660156C277.8749996660156 149.0265 324.1305003339844 201.6303746660156 384.75 211.8262496660157L384.75 211.8262496660157zM192.375 192.375L64.125 192.375L64.125 235.1250003339844L192.375 235.1250003339844L192.375 192.375L192.375 192.375zM256.5 277.8749996660157L64.125 277.8749996660157L64.125 320.625L256.5 320.625L256.5 277.8749996660157L256.5 277.8749996660157zM256.5 491.6250000333985L363.3750003339844 384.75L256.5 384.75L256.5 491.6250000333985L256.5 491.6250000333985z M476.512875 164.737125L384.75 72.97425L335.7371253339844 121.9871246660156L305.5128746660156 91.7842496660156L384.75 12.5257496660156L506.7371246660156 134.53425L476.512875 164.737125z" />
    <glyph glyph-name="check-shield"
      unicode="&#xEA12;"
      horiz-adv-x="513" d=" M460.1396253339844 403.4317496660156L267.7646253339844 510.30675C261.2880003339844 513.89775 253.4647503339844 513.89775 246.9881253339844 510.30675L54.6131253339844 403.4317496660156C47.8372503306445 399.6483746660157 43.6477503339844 392.509125 43.6477503339844 384.75C43.6477503339844 369.9157503339844 46.0845003339844 21.3749996660156 257.3977500000001 21.3749996660156C468.7110006679688 21.3749996660156 471.1477506679688 369.9157503339844 471.1477506679688 384.75C471.1477506679688 392.509125 466.9368753339844 399.6483746660157 460.1396253339844 403.4317496660156L460.1396253339844 403.4317496660156zM264.6225003339844 153.5580003339844L155.8665003339844 235.1250003339844L187.9290003339844 277.8749996660157L250.151625 231.1919996660157L341.6152506679688 377.5252496660156L386.9302500000001 349.2033753339844L264.6225003339844 153.5580003339844L264.6225003339844 153.5580003339844z" />
    <glyph glyph-name="check"
      unicode="&#xEA13;"
      horiz-adv-x="513" d=" M225.1531670625 89.8683880429687L85.5000003673828 229.5215544375L146.5356535488281 290.5917496523438L214.13427975 223.0276647832031L357.2071001367188 423.3365226931641L427.5000003339844 373.1470469578125z" />
    <glyph glyph-name="clipboard"
      unicode="&#xEA14;"
      horiz-adv-x="513" d=" M406.1463753339844 427.5000003339844L384.7713746660157 427.5000003339844L384.7713746660157 363.3750003339844L128.2713749666016 363.3750003339844L128.2713749666016 427.5000003339844L106.896375 427.5000003339844C83.298375 427.5000003339844 64.1463749999666 408.3480003005859 64.1463749999666 384.75L64.1463749999666 85.5000006679688C64.1463749999666 61.9020006679688 83.298375 42.7500003339844 106.896375 42.7500003339844L406.1463753339844 42.7500003339844C429.7443753339844 42.7500003339844 448.8963746660157 61.9020006679688 448.8963746660157 85.5000006679688L448.8963746660157 384.75C448.8963746660157 408.3480003005859 429.7443753339844 427.5000003339844 406.1463753339844 427.5000003339844L406.1463753339844 427.5000003339844zM256.5213746660157 299.2500003339844C286.0402503339844 299.2500003339844 309.9588753339844 275.3313753339844 309.9588753339844 245.8125006679687C309.9588753339844 216.293625 286.0402503339844 192.375 256.5213746660157 192.375C227.0025 192.375 203.083875 216.293625 203.083875 245.8125006679687C203.083875 275.3313753339844 227.0025 299.2500003339844 256.5213746660157 299.2500003339844L256.5213746660157 299.2500003339844zM176.3651246660156 85.5000006679688C176.3651246660156 134.6838756679688 207.3374996660156 165.6562506679688 256.5213746660157 165.6562506679688C305.7052496660156 165.6562506679688 336.6776246660157 134.6838756679688 336.6776246660157 85.5000006679688L176.3651246660156 85.5000006679688L176.3651246660156 85.5000006679688z M299.271375 448.875000300586C299.271375 472.4943753673828 280.1193746660157 491.6250003339844 256.5213746660157 491.6250003339844C232.9233746660157 491.6250003339844 213.7713753339844 472.4943753673828 213.7713753339844 448.875000300586L171.021375 448.875000300586L171.021375 384.75L342.0213753339844 384.75L342.0213753339844 448.875000300586L299.271375 448.875000300586L299.271375 448.875000300586z" />
    <glyph glyph-name="cursor-move"
      unicode="&#xEA15;"
      horiz-adv-x="513" d=" M213.7499999666016 266.76C213.7499999666016 244.0942338669442 232.8898269262881 225.72 256.5 225.72C280.1101730737119 225.72 299.2500000333985 244.0942338669442 299.2500000333985 266.76C299.2500000333985 289.4257661330558 280.1101730737119 307.8 256.5 307.8C232.8898269262881 307.8 213.7499999666016 289.4257661330558 213.7499999666016 266.76z M42.7500003339844 266.76L149.6250006679688 184.68L149.6250006679688 348.8400000000001L42.7500003339844 266.76z M470.2500006679688 266.76L363.3750003339844 184.68L363.3750003339844 348.8400000000001L470.2500006679688 266.76z" />
    <glyph glyph-name="email"
      unicode="&#xEA16;"
      horiz-adv-x="513" d=" M256.5 273.132421875L486.4482421875 410.0994140625C479.0337890625 414.00703125 470.717578125 416.5119140625 461.7 416.5119140625H51.3C42.282421875 416.5119140625 33.866015625 414.00703125 26.5517578125 410.0994140625L256.5 273.132421875L256.5 273.132421875z M270.0263671875 223.23515625C265.918359375 220.7302734375 261.2091796875 219.5279296875 256.5 219.5279296875C251.7908203125 219.5279296875 247.081640625 220.83046875 242.9736328125 223.23515625L0.1001953125 367.9171875C0.1001953125 367.716796875 0 367.51640625 0 367.316015625V145.683984375C0 118.5310546874999 23.044921875 96.387890625 51.3 96.387890625H461.7C489.955078125 96.387890625 513 118.5310546875 513 145.683984375V367.316015625C513 367.51640625 512.8998046875 367.716796875 512.8998046875 368.0173828125L270.0263671875 223.23515625L270.0263671875 223.23515625z" />
    <glyph glyph-name="euro-label"
      unicode="&#xEA17;"
      horiz-adv-x="513" d=" M448.875 354.1410003339844L448.875 406.1250003673828C448.875 417.9240003373243 439.2990003339844 427.5000003339844 427.5000003339844 427.5000003339844L85.4999999666016 427.5000003339844C73.7009999666016 427.5000003339844 64.125 417.9240003373243 64.125 406.1250003673828L64.125 354.1410003339844C25.6713749666016 337.361625300586 0 299.2927506679688 0 256.5C0 213.7072503339844 25.6713749666016 175.5956256679688 64.125 158.8590006679688L64.125 106.8750003339844C64.125 95.0760003339844 73.7009999666016 85.5000006679688 85.4999999666016 85.5000006679688L427.5000003339844 85.5000006679688C439.2990003339844 85.5000006679688 448.875 95.0760003339844 448.875 106.8750003339844L448.875 158.8590006679688C487.3286253339844 175.6170003339844 513 213.6858756679688 513 256.5C513 299.3141253339844 487.3286253339844 337.361625300586 448.875 354.1410003339844L448.875 354.1410003339844zM422.134875 194.7048756679687C412.7085 192.24675 406.1249996660156 183.7608753339844 406.1249996660156 174.0138753339844L406.1249996660156 128.25L106.8750003339844 128.25L106.8750003339844 174.03525C106.8750003339844 183.78225 100.2915 192.2681256679687 90.865125 194.7262503339844C62.5432499666016 202.057875 42.7500000333984 227.451375 42.7500000333984 256.5C42.7500000333984 285.548625 62.5432499666016 310.9421250000001 90.865125 318.2737506679688C100.2915 320.7105006679688 106.8750003339844 329.217750300586 106.8750003339844 338.964750300586L106.8750003339844 384.750000300586L406.1249996660156 384.750000300586L406.1249996660156 338.964750300586C406.1249996660156 329.217750300586 412.7085 320.7105006679688 422.134875 318.2737506679688C450.4567503339844 310.9207503339844 470.2499996660156 285.5272503339844 470.2499996660156 256.5C470.2499996660156 227.4727506679688 450.4567503339844 202.057875 422.134875 194.7048756679687L422.134875 194.7048756679687z M194.0208753339844 277.8750006679687L171.0000003339844 277.8750006679687L171.0000003339844 235.1250003339844L194.0208753339844 235.1250003339844C203.1907503339844 172.6672503339844 252.588375 149.6250006679688 299.2500003339844 149.6250006679688L299.2500003339844 192.375C274.519125 192.375 246.0048746660156 200.6257503339844 237.711375 235.1250003339844L299.2500003339844 235.1250003339844L299.2500003339844 277.8750006679687L237.711375 277.8750006679687C246.0048746660156 312.3528750000001 274.519125 320.625 299.2500003339844 320.625L299.2500003339844 363.3750003339844C252.588375 363.3750003339844 203.1907503339844 340.3327503673828 194.0208753339844 277.8750006679687L194.0208753339844 277.8750006679687z" />
    <glyph glyph-name="external"
      unicode="&#xEA18;"
      horiz-adv-x="528.9647302904564" d=" M408.6970954356847 462.1292321022822L370.1705825726142 416.8039228954357L424.6635286307054 352.6945745041494L272.4647302904565 352.6945745041494C212.3862572614108 352.6945745041494 163.4788381742739 295.1884888879668 163.4788381742739 224.4758781473029L163.4788381742739 192.4212040580913L217.9717842323652 192.4212040580913L217.9717842323652 224.4758781473029C217.9717842323652 259.800129 242.38462406639 288.5852263257262 272.4647302904565 288.5852263257262L424.6635286307054 288.5852263257262L370.1705825726142 224.4758781473029L408.6970954356847 179.1185137842323L528.9630273858921 320.6078453651452L408.6970954356847 462.1292321022822L408.6970954356847 462.1292321022822z M299.7112033195021 64.2025077012448L54.4929460580913 64.2025077012448L54.4929460580913 448.8585969846473L354.2041493775934 448.8585969846473L354.2041493775934 512.9679453258044L0 512.9679453258044L0 0.0931584585062L354.2041493775934 0.0931584585062L354.2041493775934 160.3665299688797L299.7112033195021 160.3665299688797z" />
    <glyph glyph-name="facebook"
      unicode="&#xEA19;"
      horiz-adv-x="513" d=" M389.6595703125 427.9341796875H341.265234375C303.39140625 427.9341796875 296.2775390625 409.6986328125 296.2775390625 383.5476562500001V325.2339843750001H386.6537109375L374.6302734375 233.9560546875H296.2775390625V0H201.8935546875V233.9560546875H123.240234375V325.233984375H201.8935546875V392.4650390625C201.8935546875 470.4169921875 249.68671875 513 319.42265625 513C352.6875 513 381.3433593750001 510.4951171875 389.759765625 509.2927734375V427.9341796875z" />
    <glyph glyph-name="fast-forward"
      unicode="&#xEA1A;"
      horiz-adv-x="513" d=" M453.1500003339844 269.260875L230.85 436.0072499666016C221.4450006679688 443.0609999966602 213.7500006679687 439.1921250000001 213.7500006679687 427.45725L213.7500006679687 368.6759999666016L363.3750003339844 256.4572496660157L213.7500006679687 144.2384996660156L213.7500006679687 85.4572503339844C213.7500006679687 73.7009996660157 221.4450006679688 69.8534996660156 230.85 76.9072496660156L453.1500003339844 243.6536253339844C462.5550006679688 250.664625 462.5550006679688 262.2284996660157 453.1500003339844 269.260875L453.1500003339844 269.260875z M282.1500000000001 269.260875L59.8500003673828 436.0072499666016C50.4450003339844 443.039625 42.7500003339844 439.1921250000001 42.7500003339844 427.4358750333984L42.7500003339844 85.4358746660157C42.7500003339844 73.679625 50.4450003339844 69.832125 59.8500003673828 76.885875L282.1500000000001 243.6322496660157C291.5550003339844 250.664625 291.5550003339844 262.2284996660157 282.1500000000001 269.260875L282.1500000000001 269.260875z" />
    <glyph glyph-name="female"
      unicode="&#xEA1B;"
      horiz-adv-x="513" d=" M192.3963746660157 384.75C192.3963746660157 349.3347404171004 221.106115083116 320.625 256.5213746660157 320.625C291.9366342489153 320.625 320.6463746660157 349.3347404171004 320.6463746660157 384.75C320.6463746660157 420.1652595828997 291.9366342489153 448.875 256.5213746660157 448.875C221.106115083116 448.875 192.3963746660157 420.1652595828997 192.3963746660157 384.75z M362.755125 133.4227503339844L330.3506243320313 260.7536246660157C323.3396246660157 295.423875 292.2603743320313 320.625 256.5213746660157 320.625C220.7823746994141 320.625 189.7031246660157 295.423875 182.9486246994141 261.9292503339844L150.2876246656817 133.4227503339844C148.7058746663497 127.1171246660156 150.0952496656817 120.4481246660156 154.0282496693555 115.2539996660157C157.9826246626758 110.102625 164.0531246660156 107.024625 170.5511246326172 106.8750003339844C170.5511246326172 106.8750003339844 186.4754996994141 106.5329996660156 199.0226246326172 106.4902503339844C203.1052496660157 94.2209996660156 209.2398746994141 75.1758746660157 214.7546246994141 57.6911253339844C217.5547496326172 48.799125 225.8054996660157 42.7500003339844 235.1463746994141 42.7500003339844L277.8963743320313 42.7500003339844C287.215875 42.7500003339844 295.4880000000001 48.799125 298.2881243320313 57.6911253339844C303.8028743320313 75.1758746660157 309.9374996660157 94.2209996660156 314.0414996660157 106.4902503339844C326.5672493320312 106.5329996660156 342.4702493320313 106.8750003339844 342.4702493320313 106.8750003339844C348.96825 107.024625 355.0601250000001 110.102625 358.9931246660157 115.2753753339844C362.9475 120.4481246660156 364.3368743320313 127.1171246660156 362.755125 133.4227503339844L362.755125 133.4227503339844z" />
    <glyph glyph-name="file-copy"
      unicode="&#xEA1C;"
      horiz-adv-x="419.131914893617" d=" M312.3464166574468 512.6361705765958L139.7106382978724 512.6361705765958C114.0271655936171 512.6361705765958 93.1404254955319 491.7261450810638 93.1404254955319 466.0659577742553L93.1404254955319 140.074468812766C93.1404254955319 114.3909961085107 114.0271655936171 93.5042556829787 139.7106382978724 93.5042556829787L372.5617017638298 93.5042556829787C398.2451744680851 93.5042556829787 419.131914893617 114.3909961085107 419.131914893617 140.074468812766L419.131914893617 405.8506726678724L312.3464166574468 512.6361705765958L312.3464166574468 512.6361705765958zM372.5849875978724 140.074468812766L139.7106382978724 140.074468812766L139.7106382978724 466.0659577742553L279.4212765957447 466.0659577742553L279.4212765957447 372.9255322787234L372.5617017638298 372.9255322787234L372.5849875978724 140.074468812766L372.5849875978724 140.074468812766z M46.5702128023404 419.4957450810639L0 419.4957450810639L0 46.9340425531914C0 21.2505709404255 20.8867404255319 0.3638305148936 46.5702128023404 0.3638305148936L325.991489725532 0.3638305148936L325.991489725532 46.9340425531914L46.5702128023404 46.9340425531914L46.5702128023404 419.4957450810639L46.5702128023404 419.4957450810639z" />
    <glyph glyph-name="file-pdf"
      unicode="&#xEA1D;"
      horiz-adv-x="513" d=" M245.8124996660157 181.6875006679688L245.8124996660157 117.5625006679688C263.489625 117.5625006679688 277.8749996660157 131.9478753339844 277.8749996660157 149.6250006679688C277.8749996660157 167.302125 263.489625 181.6875006679688 245.8124996660157 181.6875006679688L245.8124996660157 181.6875006679688z M144.28125 181.6875006679688L128.25 181.6875006679688L128.25 149.6250006679688L144.28125 149.6250006679688C153.1305 149.6250006679688 160.3125 156.8070006679688 160.3125 165.6562506679688C160.3125 174.5055006679688 153.1305 181.6875006679688 144.28125 181.6875006679688L144.28125 181.6875006679688z M350.8492496660156 491.6250003339844L106.8750000333985 491.6250003339844C83.298375 491.6250003339844 64.125 472.4302503673828 64.125 448.875000300586L64.125 64.125C64.125 40.5483756679687 83.298375 21.3750006679688 106.8750000333985 21.3750006679688L406.1249996660156 21.3750006679688C429.701625 21.3750006679688 448.875 40.5483756679687 448.875 64.125L448.875 393.599250300586L350.8492496660156 491.6250003339844L350.8492496660156 491.6250003339844zM144.28125 117.5625006679688L128.25 117.5625006679688L128.25 85.5000006679688L96.1875 85.5000006679688L96.1875 213.7500006679688L144.28125 213.7500006679688C170.7862496660156 213.7500006679688 192.375 192.182625 192.375 165.6562506679688C192.375 139.1298753339844 170.7862496660156 117.5625006679688 144.28125 117.5625006679688L144.28125 117.5625006679688zM245.8124996660157 85.5000006679688L213.7499996660157 85.5000006679688L213.7499996660157 213.7500006679688L245.8124996660157 213.7500006679688C281.188125 213.7500006679688 309.9374996660157 185.0006250000001 309.9374996660157 149.6250006679688C309.9374996660157 114.2493753339844 281.188125 85.5000006679688 245.8124996660157 85.5000006679688L245.8124996660157 85.5000006679688zM423.225 181.6875006679688L352.6875 181.6875006679688L352.6875 160.3125L406.1249996660156 160.3125L406.1249996660156 128.25L352.6875 128.25L352.6875 85.5000006679688L320.625 85.5000006679688L320.625 181.6875006679688C320.625 199.364625 335.0103746660156 213.7500006679688 352.6875 213.7500006679688L423.225 213.7500006679688L423.225 181.6875006679688L423.225 181.6875006679688zM320.625 363.3750003339844L320.625 470.2500003673828L427.5000003339844 363.3750003339844L320.625 363.3750003339844L320.625 363.3750003339844z" />
    <glyph glyph-name="file"
      unicode="&#xEA1E;"
      horiz-adv-x="409.92056074766356" d=" M292.2565794392524 512.2009341799065L51.5397192665888 512.2009341799065C23.3359061425234 512.2009341799065 0.3995323107477 489.2389902946261 0.3995323107477 461.0607472240654L0.3995323107477 51.9392519369159C0.3995323107477 23.735438453271 23.3359061425234 0.7990646214953 51.5397192665888 0.7990646214953L358.3808411214954 0.7990646214953C386.5846534065421 0.7990646214953 409.5210272383178 23.735438453271 409.5210272383178 51.9392519369159L409.5210272383178 394.9364855418225L292.2565794392524 512.2009341799065L292.2565794392524 512.2009341799065zM358.4064108154206 51.9392519369159L51.5397192665888 51.9392519369159L51.5397192665888 461.0607472240654L256.1004664906543 461.0607472240654L256.1004664906543 358.780373432243L358.3808411214954 358.780373432243L358.4064108154206 51.9392519369159L358.4064108154206 51.9392519369159z" />
    <glyph glyph-name="googleplus"
      unicode="&#xEA1F;"
      horiz-adv-x="513" d=" M513 279.8455078125001H466.4091796875V326.4363281250001H419.818359375V279.8455078125001H373.2275390625V233.2546875H419.818359375V186.6638671875H466.4091796875V233.2546875H513M163.2181640625 279.8455078125001V223.836328125H256.5C251.7908203125 200.4908203125 228.5455078125 153.9 163.2181640625 153.9C107.208984375 153.9 62.92265625 200.4908203125 62.92265625 256.5000000000001S107.208984375 359.1 163.2181640625 359.1C195.8818359375 359.1 216.82265625 345.07265625 228.5455078125001 333.4500000000001L272.8318359375 375.4318359375001C244.87734375 403.3863281250001 207.5044921875 419.7181640625 163.2181640625 419.7181640625C72.2408203125 419.7181640625 0 347.4773437500001 0 256.5S72.2408203125 93.2818359375 163.2181640625 93.2818359375C256.5 93.2818359375 319.42265625 158.6091796875 319.42265625 251.891015625C319.42265625 263.513671875 319.42265625 270.52734375 317.1181640625 279.8455078125001H163.2181640625z" />
    <glyph glyph-name="inbox"
      unicode="&#xEA20;"
      horiz-adv-x="513" d=" M171.0000003339844 384.7499996994141H342.0000006679687V341.9999996660156H171.0000003339844V384.7499996994141z M171.0000003339844 320.625H342.0000006679687V277.8749999666016H171.0000003339844V320.625z M427.5000003339844 235.1249993320313L384.75 235.1249993320313L384.75 427.4999996326172L128.250000300586 427.4999996326172L128.250000300586 235.1249993320313L85.5000003673828 235.1249993320313L85.5000003673828 470.2499996660156L427.5000003339844 470.2499996660156L427.5000003339844 235.1249993320313z M338.9647500000001 192.375C329.4315006679688 155.5458743320313 296.2788756679688 128.25 256.5 128.25C216.7211253339844 128.25 183.5685003339844 155.5458743320313 174.03525 192.375L42.7500003339844 192.375L42.7500003339844 42.7499993320312L470.2500006679688 42.7499993320312L470.2500006679688 192.375L338.9647500000001 192.375L338.9647500000001 192.375z" />
    <glyph glyph-name="info-circle"
      unicode="&#xEA21;"
      horiz-adv-x="513" d=" M256.5 513C115.0659 513 0 397.90845 0 256.5C0 115.04025 115.0659 0 256.5 0C397.9341 0 513 115.04025 513 256.5C513 397.90845 397.9341 513 256.5 513L256.5 513zM256.5 391.13685C274.1985 391.13685 288.5625 376.77285 288.5625 359.07435C288.5625 341.3502 274.1985 327.01185 256.5 327.01185C238.8015 327.01185 224.4375 341.37585 224.4375 359.1C224.4375 376.7985 238.8015 391.13685 256.5 391.13685L256.5 391.13685zM333.45 128.25L179.55 128.25L179.55 179.55L230.85 179.55L230.85 256.5L205.2 256.5L205.2 307.8L256.5 307.8C270.68445 307.8 282.1500000000001 296.3088 282.1500000000001 282.15L282.1500000000001 179.55L333.45 179.55L333.45 128.25L333.45 128.25z" />
    <glyph glyph-name="linkedin"
      unicode="&#xEA22;"
      horiz-adv-x="513" d=" M114.022265625 456.0890625C114.022265625 425.830078125 93.7828125 399.779296875 56.9109375 399.779296875C22.3435546875 399.779296875 0 424.42734375 0 454.686328125C0 485.546484375 21.6421875 513 56.9109375 513S113.42109375 487.0494140625 114.022265625 456.0890625z M0 370.5222656250001H114.022265625V0H0V370.5222656250001z M170.933203125 243.7751953125C170.933203125 287.7609375 169.53046875 324.5326171875 168.0275390625 356.3947265625H270.52734375L275.6373046875001 307.2990234375H277.8416015625C292.1695312500001 330.3439453125 327.638671875 364.2099609375 386.75390625 364.2099609375C458.9947265625 364.2099609375 513.1001953125 315.815625 513.1001953125 212.01328125V0H398.977734375V195.58125C398.977734375 240.9697265625 381.6439453125 275.6373046875 342.066796875 275.6373046875C311.8078125 275.6373046875 296.6783203125 251.1896484375 288.762890625 230.85C285.8572265625 223.6359375 285.155859375 213.5162109375 285.155859375 203.396484375V0H171.13359375V243.7751953125H170.933203125z" />
    <glyph glyph-name="male"
      unicode="&#xEA23;"
      horiz-adv-x="513" d=" M192.3963746660157 406.1249996660157C192.3963746660157 370.709740083116 221.106115083116 341.9999996660157 256.5213746660157 341.9999996660157C291.9366342489153 341.9999996660157 320.6463746660157 370.709740083116 320.6463746660157 406.1249996660157C320.6463746660157 441.5402592489153 291.9366342489153 470.2499996660156 256.5213746660157 470.2499996660156C221.106115083116 470.2499996660156 192.3963746660157 441.5402592489153 192.3963746660157 406.1249996660157z M256.5213746660157 341.9999996660157C197.5904996660156 341.9999996660157 149.6463746659822 294.0558743320313 149.6463746659822 235.1249993320313L149.6463746659822 170.9999993320312C149.6463746659822 159.1796246660156 159.2223746693555 149.6249996660156 171.0213746994141 149.6249996660156L192.3963746660157 149.6249996660156L192.3963746660157 64.125C192.3963746660157 52.3046243320312 201.9723746326172 42.7499993320312 213.7713746326172 42.7499993320312L299.271375 42.7499993320312C311.070375 42.7499993320312 320.6463746660157 52.3046243320312 320.6463746660157 64.125L320.6463746660157 149.6249996660156L342.0213743320313 149.6249996660156C353.8203743320313 149.6249996660156 363.396375 159.1796246660156 363.396375 170.9999993320312L363.396375 235.1249993320313C363.396375 294.0558743320313 315.4522496660157 341.9999996660157 256.5213746660157 341.9999996660157L256.5213746660157 341.9999996660157z" />
    <glyph glyph-name="min-circle"
      unicode="&#xEA24;"
      horiz-adv-x="513" d=" M256.5 513C114.823828125 513 0 398.176171875 0 256.5S114.823828125 0 256.5 0S513 114.823828125 513 256.5S398.176171875 513 256.5 513zM384.75 230.85H128.25V282.15H384.75V230.85z" />
    <glyph glyph-name="min"
      unicode="&#xEA25;"
      horiz-adv-x="513" d=" M284.9999995546875 284.9495622363281L228.0000014472656 284.9495608907051L0 284.9495622363281L0 230.949562078125L228.0000004453125 230.949562078125L285.0000135820313 230.9495618777344L513 230.949562078125L513 284.9495622363281z" />
    <glyph glyph-name="mobile"
      unicode="&#xEA26;"
      horiz-adv-x="513" d=" M361.824694294922 512.6434285709882L152.38748683125 512.6434285709882C123.5113318300781 512.6434285709882 100.0281850234453 489.7058285583984 100.0281850234453 461.4434285607422L100.0281850234453 51.8434283144532C100.0281850234453 23.5810289179688 123.5113318300781 0.6434282460938 152.38748683125 0.6434282460938L361.824694294922 0.6434282460938C390.7008490957031 0.6434282460938 414.1839952089844 23.5810289179688 414.1839952089844 51.8434283144532L414.1839952089844 461.4434285607422C414.1839952089844 489.6802285558593 390.7008490957031 512.6434285709882 361.824694294922 512.6434285709882L361.824694294922 512.6434285709882zM361.824694294922 461.4434285607422L361.824694294922 410.2434287929688L152.38748683125 410.2434287929688L152.38748683125 461.4434285607422L361.824694294922 461.4434285607422L361.824694294922 461.4434285607422zM361.8508733261719 359.0434287246094L361.8508733261719 154.2434284511719L152.38748683125 154.2434284511719L152.38748683125 359.0434287246094L361.8508733261719 359.0434287246094L361.8508733261719 359.0434287246094zM152.38748683125 51.8434283144532L152.38748683125 103.0434283828125L361.8508733261719 103.0434283828125L361.8508733261719 51.8434283144532L152.38748683125 51.8434283144532L152.38748683125 51.8434283144532z" />
    <glyph glyph-name="penarrow"
      unicode="&#xEA27;"
      horiz-adv-x="513" d=" M368.6185546875 16.03125C367.2158203125 6.612890625 356.3947265625 0 347.5775390625 0C315.41484375 0.200390625 287.0595703125 2.80546875 258.103125 17.5341796875C239.3666015625 27.052734375 247.482421875 60.2173828125 269.124609375 58.11328125C277.8416015625 57.31171875 286.959375 56.109375 295.6763671875 57.0111328125C176.544140625 178.0470703125 102.7001953125 326.63671875 166.8251953125 498.17109375C176.544140625 524.221875 218.7263671875 513 208.80703125 486.5484375C150.493359375 330.5443359375 216.7224609375 200.390625 323.630859375 90.6767578125C322.1279296875 104.403515625 321.3263671875 118.1302734375 323.630859375 132.1576171875C328.2398437500001 159.8115234375 370.2216796875 148.0886718749999 365.6126953125 120.5349609374999C360.0017578125 85.8673828125 374.0291015625 51.4001953125 368.6185546875 16.03125z" />
    <glyph glyph-name="pencil"
      unicode="&#xEA28;"
      horiz-adv-x="513" d=" M433.485 325.1394L450.606375 341.57592C476.7479993320313 366.65136 476.7479993320313 407.50668 450.606375 432.60264C425.277 456.89832 381.1376243320313 456.91884 355.7868746660156 432.60264L338.515875 416.02248L433.485 325.1394L433.485 325.1394z M403.08975 296.001L208.3848743320313 109.0843200000001C206.7176243320313 107.50428 204.879375 106.21152 202.827375 105.22656L73.6582496326172 43.21512C65.4288746660156 39.25476 55.4894996660156 40.8348 48.9914996994141 47.07288C42.4934996326172 53.31096 40.8689996660156 62.85276 44.9943746326172 70.75296L109.5468746660156 194.75532C110.5942496326172 196.7252400000001 111.9408746326172 198.48996 113.5653746994141 200.09052L308.2702496660156 387.0072L403.08975 296.001L403.08975 296.001z" />
    <glyph glyph-name="phone"
      unicode="&#xEA29;"
      horiz-adv-x="513" d=" M309.9374996660157 74.8125003339844L416.8125 74.8125003339844C428.6328746660156 74.8125003339844 438.1874996660156 84.3671253339844 438.1874996660156 96.1875L438.1874996660156 181.6874996660156C438.1874996660156 193.5078753339844 428.6328746660156 203.0625003339844 416.8125 203.0625003339844L331.3125003339844 203.0625003339844C319.4921246660157 203.0625003339844 309.9374996660157 193.5078753339844 309.9374996660157 181.6874996660156L309.9374996660157 160.3125C224.4375 160.3125 161.659125 225.7627503339844 160.3125 309.9374996660157L181.6874996660156 309.9374996660157C193.5078753339844 309.9374996660157 203.0625003339844 319.4921246660157 203.0625003339844 331.3125003339844L203.0625003339844 416.8125C203.0625003339844 428.6328749666016 193.5078753339844 438.1874999666016 181.6874996660156 438.1874999666016L96.1875 438.1874999666016C84.3885 438.1874999666016 74.8125000333985 428.6328749666016 74.8125000333985 416.8125L74.8125000333985 309.9374996660157C74.8125000333985 180.0843746660157 180.0843746660156 74.8125003339844 309.9374996660157 74.8125003339844L309.9374996660157 74.8125003339844z" />
    <glyph glyph-name="question"
      unicode="&#xEA2A;"
      horiz-adv-x="513" d=" M256.5 513C115.02421875 513 0 397.8755859375 0 256.5C0 115.02421875 115.02421875 0 256.5 0C397.97578125 0 513 115.02421875 513 256.5C513 397.8755859375 397.97578125 513 256.5 513zM256.5 96.1875C238.7654296875 96.1875 224.4375 110.5154296875 224.4375 128.25C224.4375 145.9845703125 238.7654296875 160.3125 256.5 160.3125C274.2345703125 160.3125 288.5625 145.9845703125 288.5625 128.25C288.5625 110.5154296875 274.2345703125 96.1875 256.5 96.1875zM282.1500000000001 208.40625V179.55H230.85V256.5H256.5C284.755078125 256.5 307.8 279.544921875 307.8 307.8C307.8 336.1552734375 284.755078125 359.1 256.5 359.1C228.1447265625 359.1 205.2 336.1552734375 205.2 307.8H153.9C153.9 364.4103515625 199.8896484375 410.4 256.5 410.4C313.1103515625 410.4 359.1 364.4103515625 359.1 307.8C359.1 260.10703125 326.3361328125 219.828515625 282.1500000000001 208.40625z" />
    <glyph glyph-name="sate-menu"
      unicode="&#xEA2B;"
      horiz-adv-x="513" d=" M505.3734394101563 148.6184395605469L505.3577838925781 148.3244705214844L505.3734394101563 148.6184395605469z M292.5703125 489.955078125H220.9150085449219ANaN NaN NaN 0 0 321.1103210449219 489.955078125V367.00776675ANaN NaN NaN 0 0 220.9150085449219 367.00776675H292.5703125ANaN NaN NaN 0 0 192.375 367.00776675V489.955078125ANaN NaN NaN 0 0 292.5703125 489.955078125z M292.5703125 318.62109375H220.9150085449219ANaN NaN NaN 0 0 321.1103210449219 318.62109375V195.673782375ANaN NaN NaN 0 0 220.9150085449219 195.673782375H292.5703125ANaN NaN NaN 0 0 192.375 195.673782375V318.62109375ANaN NaN NaN 0 0 292.5703125 318.62109375z M292.5703125 146.28515625H220.9150085449219ANaN NaN NaN 0 0 321.1103210449219 146.28515625V23.337844875ANaN NaN NaN 0 0 220.9150085449219 23.337844875H292.5703125ANaN NaN NaN 0 0 192.375 23.337844875V146.28515625ANaN NaN NaN 0 0 292.5703125 146.28515625z" />
    <glyph glyph-name="search"
      unicode="&#xEA2C;"
      horiz-adv-x="513" d=" M479.0992496660156 90.61632L394.4756243320313 171.855C415.5086243320313 203.0454 426.9228743320313 239.34528 426.9228743320313 277.34832C426.9228743320313 384.91416 336.207375 472.00104 224.1382496660157 472.00104C112.0904996994141 472.00104 21.3749996660156 384.93468 21.3749996660156 277.34832C21.3749996660156 169.803 112.0691246326172 82.67508 224.1382496660157 82.67508C263.746125 82.67508 301.5584993320313 93.61224 334.0057493320313 113.82444L418.608 32.60628C435.3659996660157 16.47756 462.4053749999999 16.5186 479.077875 32.5857599999999C495.750375 48.59136 495.750375 74.63124 479.0992496660156 90.61632L479.0992496660156 90.61632zM64.1249996994141 277.34832C64.1249996994141 362.23956 135.6885 430.94052 224.1382496660157 430.94052C312.5238743320312 430.94052 384.172875 362.26008 384.172875 277.34832C384.172875 236.32884 367.5217496660156 197.75124 337.2547496660157 168.75648C307.0305 139.70016 266.88825 123.75612 224.1382496660157 123.75612C135.752625 123.71508 64.1249996994141 192.45708 64.1249996994141 277.34832L64.1249996994141 277.34832z" />
    <glyph glyph-name="settings"
      unicode="&#xEA2D;"
      horiz-adv-x="570.2961038961039" d=" M356.2129879012988 426.4180359194806C356.2129879012988 436.2249969584416 357.5490077922078 445.6624203794805 359.6525303142858 454.844009901039L0.8883121324676 454.844009901039L0.8883121324676 397.9920623376624L359.6525303142858 397.9920623376624C357.5490077922078 407.1736514594806 356.2129879012988 416.6110748805195 356.2129879012988 426.4180359194806L356.2129879012988 426.4180359194806z M356.2129879012988 85.3063476077921C356.2129879012988 95.1133086467532 357.5490077922078 104.5507324675324 359.6525303142858 113.7323211896104L0.8883121324676 113.7323211896104L0.8883121324676 56.880374025974L359.6525303142858 56.880374025974C357.5490077922078 66.0619627480519 356.2129879012988 75.4993865688311 356.2129879012988 85.3063476077921L356.2129879012988 85.3063476077921z M71.953247152987 255.8621913638961C71.953247152987 265.6691524028572 73.2892679766234 275.1065756906494 75.392790098961 284.2881653454546L0.8883121324675 284.2881653454546L0.8883121324675 227.4362172490909L75.392790098961 227.4362172490909C73.2892679766234 236.6178069038961 71.953247152987 246.0552303249351 71.953247152987 255.8621913638961L71.953247152987 255.8621913638961z M324.347470574026 284.2881653454546C326.4509930961039 275.1065756906494 327.787012987013 265.6691524028572 327.787012987013 255.8621913638961C327.787012987013 246.0552303249351 326.4509930961039 236.6178069038961 324.347470574026 227.4362172490909L569.407793096104 227.4362172490909L569.407793096104 284.2881653454546L324.347470574026 284.2881653454546L324.347470574026 284.2881653454546z M398.8519489402599 426.4180359194806C398.8519489402599 379.3203400585855 437.0321751572868 341.1401138415585 484.1298710181819 341.1401138415585C531.227566879077 341.1401138415585 569.407793096104 379.3203400585855 569.407793096104 426.4180359194806C569.407793096104 473.5157317803756 531.227566879077 511.6959579974026 484.1298710181819 511.6959579974026C437.0321751572868 511.6959579974026 398.8519489402599 473.5157317803756 398.8519489402599 426.4180359194806z M114.5922077922078 255.8621917636364C114.5922077922078 208.7644959027412 152.7724340092348 170.5842696857142 199.8701298701299 170.5842696857142C246.967825731025 170.5842696857142 285.148051948052 208.7644959027412 285.148051948052 255.8621917636364C285.148051948052 302.9598876245315 246.967825731025 341.1401138415585 199.8701298701299 341.1401138415585C152.7724340092348 341.1401138415585 114.5922077922078 302.9598876245315 114.5922077922078 255.8621917636364z M398.8519489402599 85.3063476077921C398.8519489402599 38.208651746897 437.0321751572868 0.02842552987 484.1298710181819 0.02842552987C531.227566879077 0.02842552987 569.407793096104 38.208651746897 569.407793096104 85.3063476077921C569.407793096104 132.4040434686872 531.227566879077 170.5842696857142 484.1298710181819 170.5842696857142C437.0321751572868 170.5842696857142 398.8519489402599 132.4040434686872 398.8519489402599 85.3063476077921z" />
    <glyph glyph-name="swipe-hor"
      unicode="&#xEA2E;"
      horiz-adv-x="717.5607476635514" d=" M376.0934590093458 443.7135695607477L307.9065425887851 443.7135695607477L307.9065425887851 205.0593644859813L205.6261687570094 205.0593644859813L307.9065425887851 0.4986168224298L512.4672902523365 0.4986168224298L512.4672902523365 205.0593644859813L376.0934590093458 273.2462793084112z M717.0280379158879 409.6201116700935L614.7476640841122 511.9004854486514L614.7476640841122 443.7135695607477L512.4672902523365 443.7135695607477L512.4672902523365 375.5266536196262L614.7476640841122 375.5266536196262L614.7476640841122 307.339738317757z M205.6261687570094 443.7135695607477L103.3457949252336 443.7135695607477L103.3457949252336 511.9004854486514L1.0654210934579 409.6201116700935L103.3457949252336 307.339738317757L103.3457949252336 375.5266536196262L205.6261687570094 375.5266536196262z" />
    <glyph glyph-name="tab-menu"
      unicode="&#xEA2F;"
      horiz-adv-x="571.78125" d=" M57.8906254898438 513H570.8906254898437V455.9999999554688H57.8906254898438V513z M228.890625890625 399.0000000445313H570.890625890625V342H228.890625890625V399.0000000445313z M228.890625890625 284.9999995546875H570.890625890625V227.9999995101563H228.890625890625V284.9999995546875z M228.890625890625 171H570.890625890625V113.9999999554688H228.890625890625V171z M57.8906254898438 57.0000004453125H570.8906254898437V4.007812e-7H57.8906254898438V57.0000004453125z M171.8906254453125 427.5L0.8906254453125 256.5L171.8906254453125 85.5z" />
    <glyph glyph-name="twitter"
      unicode="&#xEA30;"
      horiz-adv-x="513" d=" M460.297265625 361.0037109375001C460.5978515625 356.4949218750001 460.5978515625 351.8859375 460.5978515625 347.3771484375C460.5978515625 208.40625 354.7916015625001 48.1939453125 161.4146484375 48.1939453125C101.7984375 48.1939453125 46.490625 65.4275390625 0 95.3859375000001C8.5166015625 94.3839843750001 16.632421875 94.0833984375 25.3494140625 94.0833984375C74.5453125 94.0833984375 119.7333984375 110.7158203125001 155.90390625 139.07109375C109.7138671875 140.073046875 70.93828125 170.33203125 57.6123046875 212.01328125C64.125 211.011328125 70.6376953125 210.41015625 77.4509765625 210.41015625C86.8693359375 210.41015625 96.2876953125 211.7126953125 105.1048828125 214.0171875C56.9109375 223.7361328125 20.840625 266.1187500000001 20.840625 317.2183593750001C20.840625 317.5189453125 20.840625 318.2203125000001 20.840625 318.5208984375C34.86796875 310.7056640625001 51.099609375 305.7960937500001 68.333203125 305.1949218750001C39.9779296875 324.031640625 21.441796875 356.2945312500001 21.441796875 392.765625C21.441796875 412.3037109375 26.651953125 430.238671875 35.7697265625 445.869140625C87.570703125 381.8443359375 165.322265625 340.1630859375 252.5923828125 335.654296875C250.9892578125 343.4695312500001 249.9873046875 351.5853515625 249.9873046875 359.701171875C249.9873046875 417.6140625 296.8787109375 464.8060546875 355.0921875 464.8060546875C385.351171875 464.8060546875 412.7044921875 452.08125 431.9419921875 431.6414062500001C455.6882812499999 436.1501953125001 478.4326171874999 444.9673828125 498.6720703125 456.9908203125C490.8568359374999 432.5431640625 474.2244140624999 412.1033203125001 452.4820312499999 399.0779296875001C473.6232421875 401.382421875 494.16328125 407.19375 512.9999999999999 415.3095703125C498.6720703125 394.569140625 480.737109375 375.9328125 460.297265625 361.0037109375001z" />
    <glyph glyph-name="user"
      unicode="&#xEA31;"
      horiz-adv-x="513" d=" M256.5 256.5C327.2378906250001 256.5 384.75 314.012109375 384.75 384.75S327.2378906250001 513 256.5 513S128.25 455.487890625 128.25 384.75S185.762109375 256.5 256.5 256.5L256.5 256.5z M256.5 224.4375C105.5056640625 224.4375 0 145.3833984375 0 32.0625V0H513V32.0625C513 145.3833984375 407.59453125 224.4375 256.5 224.4375L256.5 224.4375z" />
    <glyph glyph-name="vote-medal"
      unicode="&#xEA32;"
      horiz-adv-x="559.4199535962877" d=" M548.8663569118329 166.2346624593968L460.8572993039443 229.613372436195C474.8229601600928 256.0374192111369 482.8468681461717 285.801036473318 482.8468681461717 317.3928857540604C482.8468681461717 424.9173048723898 391.714579649652 512.4043010672854 279.7099767981439 512.4043010672854C167.7053739466357 512.4043010672854 76.5730858071926 424.9173048723898 76.5730858071926 317.3928857540604C76.5730858071926 285.801036473318 84.5969930791183 256.0374192111369 98.5626542923434 229.613372436195L10.5535963273782 166.2346624593968C2.7074339143852 160.6037078422273 -1.0505986475638 151.1212777726219 0.8792018958237 141.9313648259861C2.8090023201856 132.692699025522 10.0965383227378 125.355394524362 19.6185800860789 123.0883868213457L106.4088167053364 102.270918236659L128.0936802111369 18.9522910440835C130.6074992366589 9.3967316937355 138.8599350348028 2.2056857540604 149.0167791856148 0.7674765661253C150.2609934361949 0.5480887238979 151.5052064965197 0.4993358700697 152.7494195568446 0.4993358700697C161.585874313225 0.4993358700697 169.9144876357309 4.9358455684455 174.5104593967518 12.3219029234339L245.1767057331787 125.4041473781903C256.4254102761021 123.5515389327146 267.9026450116009 122.3814704408353 279.6845850835267 122.3814704408353C291.4665239651972 122.3814704408353 302.9437587006961 123.5515389327146 314.1924644338747 125.4041473781903L384.8587095800464 12.3219029234339C389.5054659605568 4.9114691415314 397.8086863781903 0.4993358700697 406.6197494199536 0.4993358700697C407.8639624802784 0.4993358700697 409.1081767308585 0.572465150812 410.3269980765661 0.7674765661253C420.4838422273782 2.2300621809745 428.7616709303944 9.3967316937355 431.2500970510441 18.9522910440835L452.9349605568445 102.270918236659L539.7251968190254 123.0883868213457C549.2472385823665 125.3797709512761 556.5347749419954 132.7170754524362 558.4645750092807 141.9313648259861C560.470552600928 151.1212777726219 556.6871276102088 160.6037078422273 548.8663569118329 166.2346624593968L548.8663569118329 166.2346624593968zM162.5253832273782 87.8644499303945L152.0130491206497 128.2805657540603C149.7277590974478 137.0073265893271 142.6179671206497 143.8571025522042 133.5021999327146 146.050980974478L83.7082691415313 157.9710537354988L127.0272115336427 189.1728801856148C145.8173731531322 168.5747994431555 169.0003716264501 151.8281941531323 195.2558139883991 140.2493913689095L162.5253832273782 87.8644499303945L162.5253832273782 87.8644499303945zM127.3573085846868 317.3928857540604C127.3573085846868 398.054482412993 195.6874802784223 463.6514472389791 279.7099767981439 463.6514472389791C363.7324733178654 463.6514472389791 432.0626450116009 398.054482412993 432.0626450116009 317.3928857540604C432.0626450116009 236.7312890951277 363.7324733178654 171.1343242691415 279.7099767981439 171.1343242691415C195.6874802784223 171.1343242691415 127.3573085846868 236.7312890951277 127.3573085846868 317.3928857540604L127.3573085846868 317.3928857540604zM425.9177536635731 146.0266045475638C416.8273781902552 143.83272612529 409.6921944988399 137.0073265893271 407.406904475638 128.2561893271462L396.8945703689095 87.8400735034803L364.1641396078886 140.2250149419954C390.3941902552204 151.8038177262182 413.5771875382831 168.5504230162413 432.392742062645 189.1485037587007L475.7116844547564 157.9466773085847L425.9177536635731 146.0266045475638L425.9177536635731 146.0266045475638z M254.3178658259861 234.1473878422275L167.629197612529 317.3928857540604L203.5336426914153 351.8611534106729L254.3178658259861 303.1082995823666L355.8863109048724 400.6140072389792L391.7907559837587 366.1457395823666z" />
    <glyph glyph-name="wizard"
      unicode="&#xEA33;"
      horiz-adv-x="513" d=" M0 436.05C0 393.5516885005204 34.4516885005204 359.1 76.95 359.1C119.4483114994796 359.1 153.9 393.5516885005204 153.9 436.05C153.9 478.5483114994796 119.4483114994796 513 76.95 513C34.4516885005204 513 0 478.5483114994796 0 436.05z M76.95 333.4500000000001C119.4328125 333.4500000000001 153.9 298.9828125 153.9 256.5C153.9 214.0171875 119.4328125 179.55 76.95 179.55C34.4671875 179.55 0 214.0171875 0 256.5C0 298.9828125 34.4671875 333.4500000000001 76.95 333.4500000000001z M76.95 153.9C119.4328125 153.9 153.9 119.4328125000001 153.9 76.95C153.9 34.4671875 119.4328125 0 76.95 0C34.4671875 0 0 34.4671875 0 76.95C0 119.4328125 34.4671875 153.9 76.95 153.9z M205.2 461.7H513V410.4H205.2V461.7z M205.2 282.15H513V230.85H205.2V282.15z M205.2 102.6H513V51.3H205.2V102.6z" />
    <glyph glyph-name="youtube"
      unicode="&#xEA34;"
      horiz-adv-x="513" d=" M503.8822265625 132.2578125C497.8705078125 104.203125 475.526953125 83.562890625 448.674609375 80.4568359375C385.15078125 73.34296875 320.7251953125 73.34296875 256.6001953125 73.34296875S128.049609375 73.34296875 64.52578125 80.4568359375C37.473046875 83.562890625 15.1294921875 104.203125 8.9173828125 132.2578125C0 172.0353515625 0 215.5201171875 0 256.5S0 340.9646484375001 9.1177734375 380.7421875C15.430078125 408.796875 37.473046875 429.437109375 64.325390625 432.5431640625C127.84921875 439.65703125 192.2748046875 439.65703125 256.3998046875 439.65703125S384.950390625 439.65703125 448.47421875 432.5431640625C475.4267578124999 429.437109375 497.6701171875 408.796875 503.9824218749999 380.7421875C512.8998046874999 340.9646484375001 512.8998046874999 297.4798828125 512.8998046874999 256.5S513 172.0353515625 503.8822265625 132.2578125zM357.7974609375001 271.930078125L211.21171875 363.5085937500001C205.5005859375 367.2158203125 198.2865234375 367.2158203125 192.575390625 364.109765625C186.8642578125 361.0037109375001 183.15703125 354.69140625 183.15703125 348.078515625V164.8212890625C183.15703125 158.2083984375 186.8642578125 151.89609375 192.575390625 148.7900390625C195.4810546875 147.3873046875 198.2865234375 146.485546875 201.4927734375 146.485546875C204.8994140625 146.485546875 208.40625 147.3873046875 211.21171875 149.3912109375L357.7974609375001 240.9697265625C363.2080078125 244.0757812500001 366.4142578125001 250.0875000000001 366.4142578125001 256.3998046875S363.3082031250001 268.8240234375001 357.7974609375001 271.930078125z" />
  </font>
</defs>
</svg>
